<svg xmlns="http://www.w3.org/2000/svg" id="svg">
	
	
	<symbol id="alarm" viewBox="0 0 33.081 33.081">
		<path d="M10.364 1.832l-.172-.207A5.543 5.543 0 0 0 6.262 0a5.556 5.556 0 0 0-4.077 9.332 14.045 14.045 0 0 1 8.179-7.5zM30.75 2.174A5.538 5.538 0 0 0 26.817.547a5.53 5.53 0 0 0-3.928 1.627l-.188.199a14.071 14.071 0 0 1 8.193 7.506 5.553 5.553 0 0 0-.144-7.705zM26.637 7.504A14.236 14.236 0 0 0 16.541 3.32 14.226 14.226 0 0 0 6.446 7.504c-5.579 5.576-5.579 14.615 0 20.195.035.033.072.062.105.096l-3.593 3.596s-.115 1.311 1.681 1.68l3.758-3.756c2.441 1.703 5.287 2.568 8.144 2.568s5.704-.865 8.147-2.568l3.753 3.756c1.852.164 1.682-1.68 1.682-1.68l-3.591-3.596c.032-.033.068-.062.104-.096 5.579-5.58 5.579-14.619.001-20.195zm-2.463 17.609c-.05.043-.098.09-.146.137l-.606.6-.775.539a10.647 10.647 0 0 1-12.206 0l-.785-.547-.599-.592c-.047-.047-.096-.09-.145-.135A10.645 10.645 0 0 1 5.833 17.6c0-2.859 1.115-5.551 3.136-7.572a10.643 10.643 0 0 1 7.572-3.137 10.62 10.62 0 0 1 7.571 3.137A10.634 10.634 0 0 1 27.25 17.6c0 2.841-1.098 5.515-3.076 7.513zM17.997 9.85a1.478 1.478 0 0 0-2.957 0v9.576h2.955v-.004l6.618.004c.814 0 1.476-.66 1.476-1.48 0-.818-.661-1.479-1.476-1.479h-6.618l.002-6.617z" />
	</symbol>
	
	
	<symbol id="computer" viewBox="0 0 489.2 489.2">
		<path d="M39.5 377.35h160.9v44.1H169c-5.2 0-9.5 4.2-9.5 9.5v27.5c0 5.2 4.2 9.5 9.5 9.5h151.2c5.2 0 9.5-4.2 9.5-9.5v-27.5c0-5.2-4.2-9.5-9.5-9.5h-31.4v-44.1h160.9c21.8 0 39.5-17.7 39.5-39.5V60.75c0-21.8-17.7-39.5-39.5-39.5H39.5C17.7 21.25 0 38.95 0 60.75v277.1c0 21.8 17.7 39.5 39.5 39.5zm14.4-302.2h381.4v248H53.9v-248zm241.6 59.9l31.1 31.3-71.7 71.3-31.3 31.1-31.1-31.2-30-30.2 31.3-31.1 30 30.2 71.7-71.4z" />
	</symbol>
	
	
	<symbol id="crop" viewBox="0 0 512 512">
		<path d="M180 472H40V332c0-11.046-8.954-20-20-20s-20 8.954-20 20v160c0 11.046 8.954 20 20 20h160c11.046 0 20-8.954 20-20s-8.954-20-20-20zM180 0H20C8.954 0 0 8.954 0 20v160c0 11.046 8.954 20 20 20s20-8.954 20-20V40h140c11.046 0 20-8.954 20-20s-8.954-20-20-20zM492 312c-11.046 0-20 8.954-20 20v140H332c-11.046 0-20 8.954-20 20s8.954 20 20 20h160c11.046 0 20-8.954 20-20V332c0-11.046-8.954-20-20-20zM492 0H332c-11.046 0-20 8.954-20 20s8.954 20 20 20h140v140c0 11.046 8.954 20 20 20s20-8.954 20-20V20c0-11.046-8.954-20-20-20z"/>
	</symbol>
	<symbol id="facebook" viewBox="0 0 96.124 96.123">
		<path d="M72.089.02L59.624 0C45.62 0 36.57 9.285 36.57 23.656v10.907H24.037a1.96 1.96 0 0 0-1.96 1.961v15.803a1.96 1.96 0 0 0 1.96 1.96H36.57v39.876a1.96 1.96 0 0 0 1.96 1.96h16.352a1.96 1.96 0 0 0 1.96-1.96V54.287h14.654a1.96 1.96 0 0 0 1.96-1.96l.006-15.803a1.963 1.963 0 0 0-1.961-1.961H56.842v-9.246c0-4.444 1.059-6.7 6.848-6.7l8.397-.003a1.96 1.96 0 0 0 1.959-1.96V1.98A1.96 1.96 0 0 0 72.089.02z" />
	</symbol>
	
	
	<symbol id="graph" viewBox="0 0 512 512">
		<path d="M401.819 206.077c-8.33-8.331-21.838-8.331-30.17 0l-85.48 85.481-45.254-45.257a21.332 21.332 0 0 0-30.17 0L110.18 346.869c-8.331 8.33-8.331 21.838 0 30.17a21.266 21.266 0 0 0 15.084 6.248c5.46 0 10.92-2.084 15.084-6.248l85.481-85.478 45.254 45.254a21.333 21.333 0 0 0 30.17 0L401.82 236.248c8.33-8.331 8.33-21.839-.001-30.171z" /><path d="M469.333 42.667H334.222V21.333C334.222 9.552 324.671 0 312.889 0H199.111c-11.782 0-21.333 9.552-21.333 21.333v21.333H42.667c-11.782 0-21.333 9.552-21.333 21.333v426.667c0 11.782 9.552 21.333 21.333 21.333h426.667c11.782 0 21.333-9.552 21.333-21.333V64c0-11.782-9.552-21.333-21.334-21.333zm-248.889 0h71.111v21.249c0 .028-.004.055-.004.084s.004.055.004.084v21.249h-71.111V42.667zM448 469.333H64v-384h113.778v21.333c0 11.782 9.552 21.333 21.333 21.333h113.778c11.782 0 21.333-9.552 21.333-21.333V85.333H448v384z" />
	</symbol>
	
	
	<symbol id="house" viewBox="0 0 612 612">
		<path d="M74.165 294.769V572.86h244.512V367.341h129.282v205.512h87.592V294.77L304.858 122.543 74.165 294.769zm176.575 180.93H142.388V367.341h108.358v108.358h-.006z"/><path d="M605.726 259.844l-69.035-45.952V86.66h-80.915v66.486L303.912 39.14 6.191 259.892c-6.897 5.251-8.233 15.1-2.988 21.991 5.245 6.897 15.088 8.245 21.991 2.988l278.84-206.403 282.853 206.464a15.605 15.605 0 0 0 9.41 3.141c4.763 0 9.477-2.165 12.563-6.269 5.196-6.928 3.8-16.758-3.134-21.96z"/>
	</symbol>
	<symbol id="instagram" viewBox="0 0 510 510">
		<path d="M459 0H51C22.95 0 0 22.95 0 51v408c0 28.05 22.95 51 51 51h408c28.05 0 51-22.95 51-51V51c0-28.05-22.95-51-51-51zM255 153c56.1 0 102 45.9 102 102s-45.9 102-102 102-102-45.9-102-102 45.9-102 102-102zM63.75 459C56.1 459 51 453.9 51 446.25V229.5h53.55C102 237.15 102 247.35 102 255c0 84.15 68.85 153 153 153s153-68.85 153-153c0-7.65 0-17.85-2.55-25.5H459v216.75c0 7.65-5.1 12.75-12.75 12.75H63.75zM459 114.75c0 7.65-5.1 12.75-12.75 12.75h-51c-7.65 0-12.75-5.1-12.75-12.75v-51c0-7.65 5.1-12.75 12.75-12.75h51C453.9 51 459 56.1 459 63.75v51z" />
	</symbol>
	
	
	<symbol id="open-book" viewBox="0 0 458.321 458.321">
		<path d="M439.831 22.011L229.16 72.403 18.49 22.011C9.036 19.756 0 26.937 0 36.6v333.899c0 6.94 4.761 12.974 11.511 14.589l214.16 51.227a14.97 14.97 0 0 0 6.979 0l214.161-51.227a15 15 0 0 0 11.51-14.589V36.6c-.001-9.681-9.052-16.838-18.49-14.589zM214.16 402.716L30 358.665V55.611l184.16 44.051v303.054zm214.16-44.051l-184.16 44.051V99.662l184.16-44.051v303.054z"/><path d="M60.645 170.595L179 198.905c8.085 1.931 16.157-3.067 18.078-11.1 1.927-8.056-3.042-16.15-11.099-18.078l-118.355-28.31c-8.06-1.924-16.151 3.043-18.078 11.1s3.042 16.15 11.099 18.078zM60.645 231.939L179 260.25c8.085 1.931 16.157-3.067 18.078-11.1 1.927-8.057-3.042-16.15-11.099-18.078L67.624 202.761c-8.06-1.927-16.151 3.043-18.078 11.1s3.042 16.15 11.099 18.078zM60.644 293.285L179 321.594c8.08 1.93 16.155-3.062 18.078-11.1 1.927-8.056-3.042-16.15-11.099-18.077l-118.356-28.31c-8.06-1.925-16.15 3.043-18.078 11.1-1.928 8.057 3.042 16.15 11.099 18.078zM279.16 198.905l118.356-28.311c8.057-1.928 13.026-10.021 11.099-18.078-1.927-8.058-10.019-13.023-18.078-11.1L272.18 169.727c-8.057 1.928-13.026 10.021-11.099 18.078 1.925 8.048 10.009 13.028 18.079 11.1zM279.16 260.25l118.356-28.311c8.057-1.928 13.026-10.021 11.099-18.078-1.927-8.058-10.019-13.022-18.078-11.1L272.18 231.072c-8.057 1.928-13.026 10.021-11.099 18.078 1.925 8.047 10.009 13.028 18.079 11.1zM279.159 321.594l118.356-28.31c8.057-1.928 13.026-10.021 11.099-18.078-1.927-8.058-10.021-13.023-18.078-11.1l-118.356 28.31c-8.057 1.928-13.026 10.021-11.099 18.078 1.925 8.048 10.008 13.029 18.078 11.1z"/>
	</symbol>
	
	
	<symbol id="pinterest" viewBox="0 0 486.392 486.392">
		<path d="M430.149 135.248C416.865 39.125 321.076-9.818 218.873 1.642 138.071 10.701 57.512 76.03 54.168 169.447c-2.037 57.029 14.136 99.801 68.399 111.84 23.499-41.586-7.569-50.676-12.433-80.802C90.222 77.367 252.16-6.718 336.975 79.313c58.732 59.583 20.033 242.77-74.57 223.71-90.621-18.179 44.383-164.005-27.937-192.611-58.793-23.286-90.013 71.135-62.137 118.072-16.355 80.711-51.557 156.709-37.3 257.909 46.207-33.561 61.802-97.734 74.57-164.704 23.225 14.136 35.659 28.758 65.268 31.038 109.195 8.48 170.267-109.014 155.28-217.479z" />
	</symbol>
	
	
	<symbol id="twitter" viewBox="0 0 612 612">
		<path d="M612 116.258a250.714 250.714 0 0 1-72.088 19.772c25.929-15.527 45.777-40.155 55.184-69.411-24.322 14.379-51.169 24.82-79.775 30.48-22.907-24.437-55.49-39.658-91.63-39.658-69.334 0-125.551 56.217-125.551 125.513 0 9.828 1.109 19.427 3.251 28.606-104.326-5.24-196.835-55.223-258.75-131.174-10.823 18.51-16.98 40.078-16.98 63.101 0 43.559 22.181 81.993 55.835 104.479a125.556 125.556 0 0 1-56.867-15.756v1.568c0 60.806 43.291 111.554 100.693 123.104-10.517 2.83-21.607 4.398-33.08 4.398-8.107 0-15.947-.803-23.634-2.333 15.985 49.907 62.336 86.199 117.253 87.194-42.947 33.654-97.099 53.655-155.916 53.655-10.134 0-20.116-.612-29.944-1.721 55.567 35.681 121.536 56.485 192.438 56.485 230.948 0 357.188-191.291 357.188-357.188l-.421-16.253c24.666-17.593 46.005-39.697 62.794-64.861z" />
	</symbol>
	
	
	<symbol id="cart" viewBox="0 0 193.056 193.056">
    	<path d="M163.022 147.499H62.417l-2.13-8.714h114.017l18.466-80.448L42.135 40.28 35.234 0H.286v15.217h22.116l3.969 23.173-.32-.038 18.184 100.435h.383l2.214 9.049c-10.774 1.798-19.021 11.164-19.021 22.44 0 12.562 10.218 22.78 22.777 22.78 12.559 0 22.78-10.218 22.78-22.78 0-2.65-.479-5.192-1.319-7.558h69.512a22.648 22.648 0 0 0-1.319 7.558c0 12.562 10.218 22.78 22.775 22.78 12.562 0 22.78-10.218 22.78-22.78.008-12.558-10.213-22.777-22.775-22.777zM44.818 55.925l129.331 15.507-11.968 52.136H56.946L46.89 68.018l-2.072-12.093zm5.776 121.912c-4.169 0-7.56-3.393-7.56-7.563 0-4.167 3.391-7.558 7.56-7.558s7.56 3.394 7.56 7.558c0 4.172-3.391 7.563-7.56 7.563zm112.428.003c-4.167 0-7.558-3.393-7.558-7.563 0-4.167 3.393-7.558 7.558-7.558 4.172 0 7.563 3.393 7.563 7.558.003 4.169-3.391 7.563-7.563 7.563z"/>
	</symbol>
	
	
	<symbol id="search" viewBox="0 0 390.704 390.704">
    	<path d="M379.711 326.556L265.343 212.188c30.826-54.189 23.166-124.495-23.001-170.663-55.367-55.366-145.453-55.366-200.818 0-55.365 55.366-55.366 145.452 0 200.818 46.167 46.167 116.474 53.827 170.663 23.001l114.367 114.369c14.655 14.655 38.503 14.654 53.157 0 14.656-14.654 14.657-38.501 0-53.157zM214.057 214.059c-39.77 39.771-104.479 39.771-144.25 0-39.77-39.77-39.77-104.48 0-144.25 39.771-39.77 104.48-39.77 144.25 0 39.771 39.77 39.77 104.481 0 144.25z"/>
	</symbol>	
</svg>
